<svg xmlns="http://www.w3.org/2000/svg" width="100" height="125.4" viewBox="0 0 156 195.6"><style><![CDATA[.B{stroke-linejoin:bevel}.C{font-family:Arial}.D{font-weight:bold}.E{text-anchor:middle}.F{word-spacing:0px}.G{stroke-linecap:round}.H{fill-rule:evenodd}.I{stroke-width:2.88}]]></style><defs><linearGradient id="A" x1=".063" y1=".803" x2=".967" y2=".389" spreadMethod="pad"><stop offset="0"/><stop stop-color="blue" offset=".169"/><stop stop-color="cyan" offset=".446"/><stop stop-color="lime" offset=".500"/><stop stop-color="yellow" offset=".578"/><stop stop-color="red" offset=".845"/><stop stop-color="white" offset="1"/></linearGradient></defs><g stroke="#000" class="B H I"><path transform="matrix(1 0 0 1 1.901529 55.834683)" fill="url(#A)" d="M79.287 137.906c6.2-.524 14.563-.77 20.702-1.747s14.343-2.752 20.207-4.76c4.192-1.435 9.648-3.967 13.5-6.163.873-.498 2.144-1.172 2.762-1.923 5.825-7.07 10.546-19.922 12.796-29.022 2.702-10.922 3.292-26.666 2.65-37.98-.4-7.243-2.242-17.052-4.433-23.97-1.606-5.07-3.66-13.683-7.457-16.235-27-18.153-100.525-22.286-126.953-5.546-3.31 2.098-4.644 10.165-6.17 14.68-2.033 6.016-4.37 14.28-5.33 20.54C.33 53.808-.35 64.865.184 72.955c.562 8.495 2.933 19.86 5.192 28.098 1.35 4.917 3.665 11.43 5.893 16.008 1.168 2.4 2.73 6.016 4.696 7.6 7.168 5.806 21.23 8.696 30.678 10.98 5.31 1.284 12.685 2.087 18.154 2.4 4.33.24 10.148-.206 14.5-.136z"/><path fill="white" d="M21.064 157.868c-4.598-7.27-4.017-8.036-5.35-19.94-1.04-9.285.103-22.515 2.38-31.605 1-3.988.878-7.365 3.787-8.99 1.11-.62 18.6 3.966 25.264 4.05s21.154 1.357 29.242 1.303c7.062-.047 20.893-.868 27.95-1.617 7.25-.77 19.412-3.75 21.607-3.736 2.42.014 2.813 3.02 3.775 5.597 2.14 5.733 3.515 14.032 4.38 20.137.63 4.436 1.23 14.072 1.33 18.558.075 3.452-.124 10.564-1.52 12.424-2.203 2.938-11.2 4.546-14.927 6.056-5.932 2.4-10.428 2.06-16.726 3.333-7.132 1.44-18.62 1.8-25.87 1.878-7.533.082-18.597-.828-26.005-2.287-8.258-1.626-20.042-2.005-29.318-5.16z"/></g><text transform="matrix(.997736 .067257 -.067257 .997736 41.738001 155.380316)" fill="limegreen" font-size="60" class="C D E F"><tspan x="23.109">A</tspan></text><text transform="matrix(.9881 -.153813 .153813 .9881 83.393584 157.88072)" fill="red" font-size="60" class="C D E F"><tspan x="26.656">M</tspan></text><text transform="matrix(.988716 .149802 -.149802 .988716 15.408509 150.418532)" fill="blue" font-size="60" class="C D E F"><tspan x="17.797">J</tspan></text><g stroke="black" class="B I"><path fill="white" d="M25.428 75.203c2.296 1.28 5.567 2.7 7.655 4.27 1.964 1.468 3.773 4.855 5.893 5.767 3.47 1.492 9.843 1.65 13.483.512 2.37-.74 4.675-4.24 7.023-5.276 2.726-1.203 7.076-2.12 10.02-1.893 3.438.265 7.83 2.853 11.22 3.98 3.265 1.085 7.608 3.12 10.957 3.4 3.156.265 7.875-.17 10.715-1.44 1.98-.886 3.832-3.716 5.73-4.9 1.743-1.086 4.38-2.498 6.358-2.743 3.313-.4 7.997 1.388 11.442 1.856 3.554.483 8.495 1.9 11.9 1.304 2.975-.52 7.504-2.432 9.414-4.617 1.293-1.48 2.132-4.685 2.246-6.737.148-2.668-.682-6.676-1.932-9.028-.72-1.356-2.52-2.755-3.692-3.836-1.45-1.338-4.065-2.597-5.1-4.174-2.018-3.074-3.36-8.613-3.5-12.357-.126-3.144 2.093-7.403 2.107-10.58.012-2.618-.637-6.336-1.658-8.733-.802-1.884-2.505-4.37-4.047-5.697-3.76-3.235-10.42-6.008-15.2-7.684-5.944-2.084-14.447-3.523-20.73-4.34-5.26-.685-12.4-1.074-17.712-.93-7.9.214-18.482 1.467-26.278 2.813-4.656.804-10.994 1.948-15.348 3.68-3.1 1.233-7.12 3.535-9.736 5.6-2.11 1.665-5.01 4.268-6.22 6.586-1.02 1.954-1.595 5.24-1.563 7.474.03 2.158 1.33 4.998 1.717 7.172.385 2.162 1.282 5.237.86 7.28-.646 3.135-3.52 7.16-5.63 9.735-2.243 2.738-7 5.037-8.97 7.903-1.947 2.832-4.425 7.9-4.116 11.072.147 1.512 1.66 4.015 2.944 4.802 2.365 1.45 7.3 1.1 10.345.82 1.27-.117 2.893-.926 4.164-1.12 1.596-.244 3.787-.155 5.257.058z" class="H"/><path d="M26.474 13.983c-1.01 1.923-4.506 5-4.527 6.935-.016 1.426 1.312 3.69 2.377 4.78 2.953 3.022 8.952 5.45 13.1 6.894 5.39 1.878 13.188 2.996 18.91 3.56 6.444.636 15.173.388 21.667.23 6.95-.17 16.31-.292 23.148-1.37 4.374-.69 10.12-2.38 14.355-3.72 3.255-1.03 7.53-2.66 10.67-4 2.435-1.038 8.23-3.643 9.037-5.91 1.39-3.9-1.914-4.127-1.94-5.048" fill="none" class="G"/></g><g stroke="red" stroke-width="4.8" class="B G"><path fill="none" d="M21.264 42.638c4.26 2.38 8.17 4.43 12.705 6.026 6.43 2.264 15.87 3.14 22.737 3.85 5.456.563 12.815.55 18.31.696 3.79.1 8.9.556 12.642.196 2.086-.2 4.85-.878 6.877-1.444 3.346-.935 8.095-2.02 10.948-3.848 1.83-1.172 4.985-3.593 5.178-5.346.146-1.327-1.692-4.32-2.944-4.802-1.698-.656-5.343 1.094-7.33 2.138-2.462 1.294-5.376 3.948-7.334 5.975-.717.743-1.68 1.838-2.095 2.763-.654 1.457-1.37 3.886-1.056 5.36.47 2.216 2.897 5.185 4.72 6.717 1.37 1.152 3.857 2.487 5.585 2.628 3.346.274 7.978-2.796 11.494-3.26 1.798-.236 4.598-.62 6.108.1 2.386 1.123 5.284 4.796 6.26 7.344.46 1.203.078 3.187.11 4.552"/><path fill="none" d="M135.47 44.42c-3.594 1.44-6.97 2.75-10.664 3.86-4.268 1.282-10.2 2.27-14.61 2.998-5.96.984-14.306 3.514-19.994 2.51-1.99-.352-4.67-1.914-6.274-3.223-1.282-1.046-3.14-2.905-3.528-4.398-.374-1.442.012-4.278.915-5.366.74-.89 3.002-1.693 4.18-1.547 1.688.21 4.395 2.115 5.264 3.61.8 1.375.625 4.114.49 5.846-.13 1.67-1.474 3.887-1.346 5.492.167 2.092 3.31 5.09 2.87 6.79-.433 1.674-4.272 2.884-5.713 4.473-1.567 1.73-3.884 4.513-4.233 6.662-.25 1.53.422 4.214 1.356 5.453"/></g></svg>